MY INTERNET WILL BE DOWN TONIGHT 6PM TILL 8PM GMT


The highest grossing film of all time and winner of three Oscars, Avatar is 'Titanic' director James Cameron's epic tale of love, loyalty and betrayal. An incredible experience, it will delight audiences of all ages with its blend of extraordinary special effects and compelling characters.

Promising revolutionary digital effects and an epic storyline, the hugely anticipated Avatar sees the director of Titanic and Terminator, James Cameron, returns to breathe new life into the sci-fi genre.

Winner of the BAFTA Awards for Best Production Design and Special Visual Effects.

Winner of the Academy Awards for Best Art Direction, Best Visual Effects & Best Cinematography.

Featuring Terminator Salvation's Sam Worthington, Star Trek's Zoe Saldana and James Cameron's Aliens star, Sigourney Weaver, Avatar tells of a future conflict between resource-guzzling humans and the indigenous inhabitants of the planet Pandora: the Na'vi. Humans can't breathe Pandoran air, so paraplegic marine Jake volunteers to become an Avatar: a genetically engineered half human/half Na'vi controlled via a mental link. Sent to scout out the `enemy`, Jake falls for the Na'vi princess, Neytir, forcing him to choose sides when the conflict escalates into full-blown war.


Format : MPEG-4
Format profile : Base Media / Version 2
Codec ID : mp42
File size : 2.34 GiB
Duration : 2h 35mn
Overall bit rate : 2 164 Kbps
Encoded date : UTC 2010-05-10 05:16:49
Tagged date : UTC 2010-05-10 15:04:52
Writing application : HandBrake 0.9.3 2008112300

Video
ID : 1
Format : AVC
Format/Info : Advanced Video Codec
Format profile : Main@L4.0
Format settings, CABAC : Yes
Format settings, ReFrames : 3 frames
Codec ID : avc1
Codec ID/Info : Advanced Video Coding
Duration : 2h 35mn
Bit rate mode : Variable
Bit rate : 2 000 Kbps
Width : 720 pixels
Height : 576 pixels
Display aspect ratio : 16:9
Frame rate mode : Variable
Frame rate : 25.000 fps
Minimum frame rate : 12.500 fps
Maximum frame rate : 25.000 fps
Standard : PAL
Resolution : 8 bits
Colorimetry : 4:2:0
Scan type : Progressive
Bits/(Pixel*Frame) : 0.193
Stream size : 2.17 GiB (92%)
Writing library : x264 core 65

Language : English
Encoded date : UTC 2010-05-10 05:16:49
Tagged date : UTC 2010-05-10 15:04:52
Color primaries : BT.601-6 525, BT.1358 525, BT.1700 NTSC, SMPTE 170M
Transfer characteristics : BT.709-5, BT.1361
Matrix coefficients : BT.601-6 525, BT.1358 525, BT.1700 NTSC, SMPTE 170M

Audio
ID : 2
Format : AAC
Format/Info : Advanced Audio Codec
Format version : Version 4
Format profile : LC
Format settings, SBR : No
Codec ID : 40
Duration : 2h 35mn
Bit rate mode : Variable
Bit rate : 160 Kbps
Maximum bit rate : 232 Kbps
Channel(s) : 2 channels
Channel positions : L R
Sampling rate : 48.0 KHz
Stream size : 177 MiB (7%)
Language : English
Encoded date : UTC 2010-05-10 05:16:50
Tagged date : UTC 2010-05-10 15:04:48
